<svg xmlns="http://www.w3.org/2000/svg" width="600" height="695" viewBox="0 0 600 695" version="1.1"><path d="M 576.485 158 C 576.485 230.875, 576.604 260.688, 576.750 224.250 C 576.895 187.813, 576.895 128.188, 576.750 91.750 C 576.604 55.313, 576.485 85.125, 576.485 158 M 53.565 126.578 C 52.155 127.988, 52.011 133.996, 52.241 181.830 L 52.500 235.500 55.803 235.817 C 58.858 236.111, 60.029 235.190, 71.376 223.567 C 82.405 212.271, 83.995 211, 87.101 211 C 91.619 211, 94.156 212.890, 98.573 219.544 C 102.659 225.700, 106.356 229, 109.166 229 C 114.362 229, 111.796 223.964, 100.762 212.500 C 95.204 206.726, 94.003 204.887, 93.906 202 C 93.670 195.006, 94.192 192.430, 96.587 188.750 C 98.699 185.505, 99.539 185, 102.820 185 C 106.357 185, 112.251 188.170, 114.012 191.019 C 114.361 191.585, 117.089 192.453, 120.074 192.949 C 129.008 194.434, 139.195 199.139, 144.846 204.390 C 146.686 206.101, 149.564 210.425, 151.241 214 C 154.903 221.804, 160.086 228.476, 164.098 230.550 C 166.727 231.910, 167.097 231.910, 167.620 230.547 C 168.596 228.005, 166.315 223.179, 160.954 216.442 C 157.512 212.117, 155.961 209.299, 156.178 207.768 C 156.483 205.619, 156.997 205.484, 166 205.186 C 177.727 204.799, 180.638 206.055, 184.246 213.059 C 187.741 219.841, 199.149 232, 202.018 232 C 204.024 232, 204.202 231.629, 203.693 228.494 C 203.380 226.565, 201.521 223.032, 199.562 220.641 C 197.603 218.250, 196 215.763, 196 215.113 C 196 214.464, 194.440 213.012, 192.534 211.888 C 186.100 208.091, 184.162 200.608, 188.557 196.534 C 189.973 195.223, 191.647 192.051, 192.307 189.431 C 193.192 185.921, 194.493 183.896, 197.343 181.599 L 201.186 178.500 214.106 178.500 L 227.027 178.500 230.455 182.241 C 232.340 184.299, 234.471 185.752, 235.191 185.469 C 235.911 185.187, 237.517 183.391, 238.759 181.478 L 241.018 178 262.559 178 C 279.871 178, 284.676 177.702, 287.037 176.481 C 291.284 174.285, 322.675 174.531, 325.250 176.781 C 326.212 177.622, 327 178.820, 327 179.444 C 327 181.162, 323.790 187.098, 320.596 191.285 C 317.824 194.919, 316.031 196.357, 297.254 210 C 284.021 219.615, 280.460 226, 288.330 226 C 292.354 226, 305.429 219.528, 311.568 214.498 C 315.963 210.896, 324.658 200.469, 327.102 195.869 C 327.871 194.421, 329.756 190.821, 331.290 187.869 C 332.825 184.916, 335.594 180.700, 337.445 178.500 L 340.811 174.500 369.478 174.632 L 398.145 174.765 400.823 177.348 C 403.489 179.920, 405.606 184.438, 408.159 193 C 409.272 196.734, 410.343 198.011, 414.452 200.500 C 417.175 202.150, 422.800 206.687, 426.952 210.583 C 435.493 218.597, 440.644 222.014, 444.118 221.969 C 445.428 221.952, 448.525 220.936, 451 219.711 C 459.603 215.456, 482.527 199.677, 487 194.933 C 491.386 190.280, 497.774 187.048, 502.646 187.015 C 505.086 186.998, 510.571 192.759, 512.559 197.427 C 513.900 200.577, 531.710 219.233, 536.911 222.936 C 538.505 224.071, 540.981 225, 542.414 225 L 545.019 225 544.759 175.250 L 544.500 125.500 299.823 125.248 C 77.811 125.019, 55 125.143, 53.565 126.578 M 484 280.523 C 481.525 281.845, 478.150 283.626, 476.500 284.480 C 474.850 285.334, 471.411 287.488, 468.857 289.266 C 466.304 291.045, 461.626 294.075, 458.462 296 C 455.299 297.925, 452.213 299.979, 451.605 300.565 C 450.997 301.151, 448.250 302.932, 445.500 304.522 C 442.750 306.113, 438.475 308.811, 436 310.519 C 433.525 312.227, 430.825 313.929, 430 314.301 C 429.175 314.673, 424.450 317.688, 419.500 321 C 414.550 324.312, 409.825 327.315, 409 327.674 C 408.175 328.033, 405.025 329.970, 402 331.978 C 387.427 341.653, 385.302 343, 384.617 343 C 384.212 343, 381.817 344.575, 379.296 346.500 C 376.775 348.425, 374.172 350, 373.511 350 C 372.851 350, 371.495 350.900, 370.500 352 C 369.505 353.100, 368.305 354, 367.835 354 C 367.364 354, 364.739 355.575, 362 357.500 C 359.261 359.425, 356.786 361, 356.500 361 C 356.214 361, 353.739 362.575, 351 364.500 C 348.261 366.425, 345.786 368, 345.500 368 C 345.214 368, 342.739 369.575, 340 371.500 C 337.261 373.425, 334.636 375, 334.165 375 C 333.695 375, 332.495 375.900, 331.500 377 C 330.505 378.100, 329.305 379, 328.835 379 C 328.364 379, 325.739 380.575, 323 382.500 C 320.261 384.425, 317.647 386, 317.191 386 C 316.735 386, 313.949 387.800, 311 390 C 308.051 392.200, 305.240 394, 304.753 394 C 304.265 394, 302.332 395.171, 300.456 396.602 C 296.870 399.336, 287.345 405.323, 282.855 407.663 C 281.401 408.421, 279.658 409.707, 278.983 410.521 C 278.308 411.334, 277.356 412, 276.867 412 C 276.379 412, 273.739 413.575, 271 415.500 C 268.261 417.425, 265.808 419, 265.549 419 C 265.289 419, 261.442 421.475, 257 424.500 C 252.558 427.525, 248.711 430, 248.451 430 C 248.192 430, 245.739 431.575, 243 433.500 C 240.261 435.425, 237.631 437, 237.154 437 C 236.678 437, 234.225 438.575, 231.704 440.500 C 229.183 442.425, 226.788 444, 226.383 444 C 225.682 444, 223.790 445.195, 209.219 454.842 C 205.764 457.129, 202.744 459, 202.507 459 C 202.271 459, 198.535 461.412, 194.206 464.360 C 189.876 467.308, 184.194 471.020, 181.579 472.610 C 178.963 474.199, 175.747 476.175, 174.431 477 C 168.031 481.012, 155.916 488.698, 150.927 491.911 C 147.861 493.885, 142.736 497.075, 139.538 499 C 132.819 503.045, 129.999 505.484, 130.001 507.250 C 130.003 508.786, 144.108 525.921, 146.448 527.231 C 147.685 527.923, 149.125 527.520, 151.819 525.728 C 153.844 524.382, 157.300 522.235, 159.500 520.957 C 164.710 517.931, 175.988 510.782, 183.281 505.883 C 186.461 503.748, 189.429 502, 189.876 502 C 190.324 502, 191.505 501.100, 192.500 500 C 193.495 498.900, 194.695 498, 195.165 498 C 195.636 498, 198.261 496.425, 201 494.500 C 203.739 492.575, 206.275 491, 206.636 491 C 206.997 491, 209.815 489.364, 212.896 487.364 C 215.978 485.364, 220.750 482.281, 223.500 480.512 C 226.250 478.744, 231.650 475.261, 235.500 472.773 C 239.350 470.285, 245.875 466.115, 250 463.506 C 254.125 460.896, 259.075 457.744, 261 456.500 C 264.444 454.274, 277.209 446.098, 288 439.206 C 291.025 437.274, 295.975 434.148, 299 432.260 C 302.025 430.372, 308.262 426.391, 312.861 423.413 C 317.460 420.436, 321.383 418, 321.580 418 C 321.776 418, 324.539 416.252, 327.719 414.117 C 332.809 410.697, 340.404 405.834, 352 398.569 C 353.925 397.363, 358.200 394.642, 361.500 392.522 C 367.699 388.541, 369.340 387.498, 382 379.500 C 389.895 374.512, 391.916 373.214, 404 365.369 C 408.125 362.691, 411.950 360.275, 412.500 360 C 413.050 359.725, 416.875 357.309, 421 354.631 C 425.125 351.953, 430.075 348.775, 432 347.569 C 435.904 345.123, 443.468 340.295, 452.500 334.484 C 455.800 332.361, 460.075 329.637, 462 328.431 C 468.335 324.462, 480.436 316.803, 484 314.507 C 485.925 313.266, 492.225 309.207, 498 305.485 C 503.775 301.764, 510.966 297.095, 513.979 295.110 C 516.993 293.124, 520.143 291.177, 520.979 290.781 C 524.411 289.160, 536.387 280.410, 536.762 279.250 C 537.079 278.272, 531.870 278.013, 512.833 278.059 C 489.106 278.117, 488.388 278.178, 484 280.523" stroke="none" fill="#ffffff" fill-rule="evenodd"/><path d="M 23.458 25.250 C 23.194 25.938, 23.107 85.675, 23.265 158 C 23.475 254.199, 23.879 291.916, 24.769 298.500 C 25.437 303.450, 26.444 311.325, 27.006 316 C 28.809 331.014, 30.164 339.391, 31.533 344 C 32.269 346.475, 33.186 350.975, 33.571 354 C 33.957 357.025, 34.886 360.715, 35.636 362.200 C 36.386 363.686, 37 366.046, 37 367.446 C 37 368.846, 37.851 372.581, 38.892 375.746 C 39.933 378.911, 41.773 384.875, 42.981 389 C 44.189 393.125, 45.755 398.075, 46.462 400 C 52.380 416.118, 55.203 423.434, 57.560 428.750 C 58.352 430.538, 59.629 433.463, 60.398 435.250 C 65.443 446.973, 79.374 473.658, 83.250 479.023 C 84.212 480.355, 85 481.747, 85 482.115 C 85 483.193, 99.661 504.694, 107.082 514.500 C 110.828 519.450, 115.279 525.360, 116.974 527.633 C 127.151 541.289, 171.717 585.927, 189.500 600.278 C 201.627 610.064, 234.973 633.880, 244.419 639.500 C 246.267 640.600, 250.330 643.075, 253.448 645 C 266.730 653.201, 281.713 661.964, 288.823 665.688 C 296.922 669.931, 301.131 669.977, 308.727 665.907 C 314.886 662.608, 337.575 649.500, 341.456 647 C 342.737 646.175, 346.196 644.012, 349.142 642.193 C 359.883 635.565, 363.257 633.307, 379.610 621.799 C 393.001 612.377, 410.781 598.464, 424.500 586.674 C 435.240 577.443, 467.846 544.083, 475.321 534.676 C 487.162 519.776, 496.296 507.809, 499.498 503 C 501.146 500.525, 502.760 498.275, 503.084 498 C 503.408 497.725, 504.976 495.250, 506.569 492.500 C 508.161 489.750, 510.946 485.250, 512.756 482.500 C 514.567 479.750, 516.984 475.700, 518.127 473.500 C 519.270 471.300, 521.253 467.700, 522.534 465.500 C 525.669 460.112, 537 437.354, 537 436.444 C 537 436.045, 537.900 433.757, 539 431.360 C 540.100 428.962, 541.900 425.038, 543 422.640 C 544.100 420.243, 545 417.804, 545 417.222 C 545 416.639, 545.633 414.888, 546.406 413.331 C 548.540 409.033, 552 399.632, 552 398.132 C 552 397.401, 552.629 395.384, 553.399 393.651 C 554.168 391.918, 555.252 388.700, 555.807 386.500 C 556.363 384.300, 557.263 381.150, 557.808 379.500 C 560.735 370.633, 561.987 365.891, 562.890 360.242 C 563.441 356.801, 564.233 353.433, 564.650 352.758 C 565.067 352.082, 565.955 348.148, 566.624 344.015 C 574.622 294.568, 574.017 309.622, 574.008 160.332 C 574.004 87.089, 573.727 26.452, 573.393 25.582 C 572.842 24.145, 547.678 24, 298.362 24 C 79.745 24, 23.840 24.254, 23.458 25.250 M 54.228 55.230 C 52.979 55.832, 51.629 57.489, 51.228 58.913 C 50.260 62.353, 50.289 108.747, 51.262 112.221 C 51.681 113.718, 52.902 115.412, 53.976 115.987 C 55.317 116.705, 132.283 117.028, 300.214 117.021 C 528.749 117.011, 544.581 116.901, 545.750 115.314 C 546.680 114.051, 547 106.396, 547 85.366 C 547 57.304, 546.985 57.103, 544.777 55.557 C 542.780 54.158, 517.939 54.007, 299.527 54.068 C 125.653 54.116, 55.854 54.447, 54.228 55.230 M 158.386 68.806 C 152.756 71.124, 151.035 72.753, 148.863 77.819 C 146.434 83.487, 146.550 88.263, 149.281 94.870 C 152.209 101.957, 157.468 105, 166.786 105 C 180.259 105, 187.685 95.724, 185.560 81.551 C 183.879 70.344, 170.214 63.935, 158.386 68.806 M 194.999 68 C 194.316 68.423, 194.048 74.875, 194.226 86.574 L 194.500 104.500 197 104.500 C 199.467 104.500, 199.504 104.376, 199.788 95.204 C 200.007 88.143, 200.430 85.772, 201.546 85.344 C 203.150 84.728, 208 87.469, 208 88.992 C 208 90.675, 216.379 102.202, 218.717 103.734 C 220.089 104.633, 221.976 104.972, 223.493 104.591 L 226 103.962 225.985 87.231 C 225.976 78.029, 225.588 69.898, 225.122 69.163 C 224.655 68.427, 223.200 67.977, 221.887 68.163 C 219.604 68.485, 219.478 68.914, 219 77.990 C 218.318 90.925, 217.199 90.942, 208.603 78.154 C 203.079 69.934, 201.416 68.141, 198.985 67.785 C 197.369 67.547, 195.575 67.644, 194.999 68 M 238.250 67.793 C 234.819 68.053, 234 68.489, 234 70.057 C 234 71.126, 234.338 72.026, 234.750 72.058 C 240.660 72.512, 243.485 73.160, 244.156 74.218 C 244.603 74.923, 244.976 81.672, 244.985 89.215 C 244.999 101.898, 245.150 103.010, 247 104 C 248.421 104.760, 249.579 104.760, 251 104 C 252.851 103.009, 253 101.906, 253 89.165 C 253 79.792, 253.383 75.017, 254.200 74.200 C 254.860 73.540, 257.055 73, 259.078 73 C 262.859 73, 266.086 70.626, 264.408 69.078 C 263.422 68.170, 245.132 67.271, 238.250 67.793 M 273.910 68.605 C 271.790 71.154, 271.275 102.154, 273.324 103.854 C 274.336 104.694, 278.694 104.976, 287.639 104.781 L 300.500 104.500 300.500 102 C 300.500 99.520, 300.421 99.498, 290.535 99.211 C 279.893 98.903, 279.041 98.494, 279.015 93.684 C 278.983 87.789, 280.229 87, 289.567 87 C 296.434 87, 298.181 86.693, 298.677 85.399 C 299.639 82.893, 297.123 82.032, 288.785 82.015 C 281.949 82.002, 280.941 81.758, 279.932 79.874 C 279.106 78.330, 279.091 77.096, 279.876 75.374 C 280.893 73.140, 281.474 72.999, 289.729 72.985 C 299.079 72.968, 301.663 72.170, 300.677 69.601 C 300.166 68.268, 298.230 68, 289.113 68 C 283.091 68, 277.524 67.755, 276.742 67.454 C 275.960 67.154, 274.686 67.672, 273.910 68.605 M 383.467 68.401 C 381.774 69.638, 381.593 71.346, 381.549 86.523 C 381.507 100.890, 381.730 103.424, 383.114 104.298 C 384.002 104.859, 385.464 105.036, 386.364 104.691 C 387.792 104.143, 388 101.849, 388 86.654 C 388 67.977, 387.392 65.530, 383.467 68.401 M 402.347 69.583 C 396.842 72.904, 396.140 75.856, 399.495 81.581 C 401.239 84.557, 402.950 86.169, 404.786 86.565 C 406.279 86.887, 410.087 88.071, 413.250 89.197 C 418.309 90.998, 419 91.566, 419 93.922 C 419 97.738, 417.258 99, 411.987 99 C 408.167 99, 406.880 98.484, 404.500 96 C 399.970 91.271, 395.892 92.559, 397.367 98.252 C 398.446 102.417, 403.834 105, 411.444 105 C 419.558 105, 423.912 102.812, 426.453 97.458 C 430.027 89.926, 423.556 83.762, 408.689 80.541 C 406.238 80.009, 405.918 79.528, 406.189 76.782 C 406.641 72.200, 410.529 71.376, 416.562 74.584 C 421.869 77.406, 423.560 77.588, 424.389 75.428 C 427.049 68.497, 411.140 64.279, 402.347 69.583 M 435.250 67.663 C 434.236 68.072, 433.360 71.903, 434.250 72.038 C 434.387 72.059, 436.300 72.323, 438.500 72.626 C 445.078 73.532, 445.387 74.277, 445.540 89.607 C 445.655 101.139, 445.930 103.381, 447.325 104.162 C 448.369 104.746, 449.712 104.689, 450.987 104.007 C 452.856 103.007, 453 101.937, 453 89.087 C 453 78.729, 453.338 74.965, 454.342 74.131 C 455.448 73.213, 458.578 72.488, 463.250 72.067 C 463.663 72.030, 464 71.100, 464 70 C 464 68.107, 463.333 68, 451.582 68 C 444.752 68, 438.564 67.811, 437.832 67.579 C 437.099 67.348, 435.938 67.385, 435.250 67.663 M 480.993 68.137 C 479.320 68.716, 477.681 70.750, 476.065 74.252 C 472.338 82.328, 466.882 95.272, 466.265 97.500 C 465.960 98.600, 465.276 100.057, 464.744 100.737 C 463.062 102.888, 464.735 105.163, 467.744 104.817 C 469.712 104.591, 470.891 103.612, 471.868 101.396 C 473.718 97.196, 477.787 95, 483.717 95 C 487.784 95, 489.066 95.472, 491.191 97.750 C 492.601 99.263, 494.291 101.539, 494.945 102.810 C 495.822 104.513, 496.840 105.038, 498.817 104.810 C 501.143 104.541, 501.457 104.105, 501.178 101.532 C 501.001 99.900, 500.248 97.425, 499.505 96.032 C 498.189 93.564, 497.246 91.439, 491.508 78 C 487.420 68.425, 485.464 66.591, 480.993 68.137 M 101.200 69.200 C 100.363 70.037, 100 75.443, 100 87.093 C 100 101.646, 100.210 103.867, 101.641 104.416 C 105.360 105.843, 106.995 104.126, 107.100 98.683 C 107.228 91.989, 108.230 88.500, 110.021 88.500 C 111.468 88.500, 112.160 90.089, 114.024 97.705 C 116.850 109.250, 124.586 106.299, 126.485 92.952 C 127.273 87.412, 128.334 85.530, 130.254 86.267 C 131.871 86.888, 132.972 92.073, 132.989 99.143 C 132.997 102.501, 133.450 103.959, 134.627 104.410 C 138.349 105.839, 139 103.386, 139 87.943 C 139 69.696, 138.491 68, 133.010 68 C 129.529 68, 128.694 68.449, 126.973 71.250 C 125.874 73.037, 124.696 76.203, 124.354 78.285 C 123.670 82.457, 120.615 87, 118.495 87 C 117.095 87, 116.654 85.992, 115.449 80.040 C 115.064 78.137, 113.921 74.649, 112.910 72.290 C 111.148 68.179, 110.890 68, 106.736 68 C 104.351 68, 101.860 68.540, 101.200 69.200 M 340 69.333 C 340 70.136, 341.348 74.102, 342.997 78.146 C 344.645 82.191, 345.995 85.882, 345.997 86.349 C 345.998 86.816, 346.631 88.616, 347.403 90.349 C 348.175 92.082, 349.963 96.115, 351.376 99.312 C 353.895 105.008, 354.019 105.118, 357.622 104.812 C 361.655 104.470, 361.868 104.204, 365.071 95.500 C 367.568 88.717, 368.848 85.565, 371.882 78.723 C 373.047 76.096, 374 72.579, 374 70.907 C 374 68.229, 373.695 67.905, 371.438 68.184 C 368.601 68.534, 366.716 71.525, 363.049 81.500 C 359.287 91.734, 359.144 91.993, 357.587 91.395 C 355.911 90.752, 352 83.737, 352 81.373 C 352 80.513, 351.400 78.614, 350.667 77.154 C 349.933 75.694, 348.682 73.150, 347.886 71.500 C 346.792 69.234, 345.650 68.423, 343.219 68.187 C 340.921 67.963, 340 68.291, 340 69.333 M 160.708 75.090 C 156.509 77.306, 155 80.190, 155 86 C 155 91.597, 156.396 94.463, 160.295 96.873 C 165.382 100.017, 169.911 99.657, 174.405 95.750 C 177.280 93.250, 178.270 91.534, 178.695 88.310 C 179.514 82.095, 178.416 79.314, 173.829 75.991 C 169.036 72.519, 165.977 72.309, 160.708 75.090 M 480.035 81.934 C 477.376 86.903, 480.344 91.978, 485.038 90.488 C 487.805 89.610, 487.606 84.918, 484.686 82.174 C 481.849 79.509, 481.347 79.483, 480.035 81.934 M 53.693 123.700 C 52.699 123.958, 51.462 125.285, 50.943 126.649 C 50.396 128.090, 50 151.249, 50 181.874 C 50 240.678, 49.783 238.784, 56.384 237.713 C 60.809 236.995, 65.783 233.159, 72.454 225.321 C 78.519 218.195, 85.603 212, 87.686 212 C 89.462 212, 94.828 217.484, 100.165 224.754 C 103.081 228.724, 104.606 229.891, 107.618 230.456 C 110.640 231.023, 111.668 230.807, 112.707 229.386 C 113.423 228.406, 113.727 226.681, 113.383 225.552 C 112.618 223.047, 107.023 215.990, 101.227 210.220 C 98.862 207.866, 96.461 204.716, 95.891 203.220 C 94.277 198.989, 95.697 192.536, 99.026 188.972 C 102.466 185.290, 104.360 185.532, 110.500 190.443 C 113.095 192.518, 116.922 194.230, 121.395 195.317 C 130.627 197.560, 139.995 202.106, 143.887 206.233 C 145.638 208.089, 148.308 212.059, 149.819 215.054 C 156.404 228.102, 160.978 233, 166.576 233 C 170.343 233, 171.432 231.842, 170.628 228.693 C 170.028 226.341, 165.281 218.753, 160.664 212.765 C 159.105 210.742, 158.119 208.617, 158.473 208.043 C 159.331 206.655, 172.857 206.706, 176.891 208.112 C 179.262 208.938, 180.777 210.587, 182.791 214.530 C 184.281 217.448, 188.543 223.023, 192.261 226.918 C 199.248 234.237, 201.781 235.343, 205.435 232.671 C 207.073 231.474, 207.123 230.953, 205.941 227.421 C 205.219 225.264, 203.893 222.819, 202.995 221.986 C 202.096 221.153, 200.110 218.338, 198.582 215.730 C 196.981 212.998, 194.850 210.749, 193.553 210.424 C 191.421 209.889, 188 204.478, 188 201.640 C 188 200.930, 189.107 199.309, 190.459 198.038 C 191.943 196.645, 193.165 194.096, 193.540 191.614 C 194.876 182.774, 199.875 180, 214.473 180 L 225.045 180 229.546 184.150 C 233.629 187.913, 234.283 188.192, 236.577 187.147 C 237.968 186.513, 239.576 184.646, 240.151 182.997 C 241.008 180.539, 241.763 179.992, 244.348 179.956 C 246.082 179.931, 254.742 179.950, 263.594 179.997 C 274.432 180.054, 282.107 179.583, 287.094 178.556 C 292.451 177.452, 298.512 177.142, 309 177.438 C 323.351 177.843, 323.503 177.872, 323.795 180.206 C 324.058 182.305, 322.087 185.913, 317 192.648 C 316.175 193.740, 312.575 196.602, 309 199.009 C 291.954 210.485, 282 219.874, 282 224.478 C 282 230.976, 289.563 230.152, 303.500 222.135 C 312.667 216.862, 316.632 213.392, 322.368 205.622 C 327.689 198.415, 335 186.545, 335 185.113 C 335 184.684, 336.791 182.392, 338.981 180.021 L 342.961 175.709 369.870 176.225 C 394.152 176.689, 397.028 176.923, 399.330 178.620 C 401.700 180.367, 404.005 185.244, 405.900 192.524 C 407.302 197.910, 408.989 199.977, 414.539 203.109 C 417.538 204.801, 422.852 208.957, 426.348 212.343 C 436.233 221.918, 438.076 223, 444.495 223 C 450.715 223, 449.491 223.616, 469.616 210.364 C 477.379 205.252, 485.058 199.592, 486.680 197.785 C 491.696 192.197, 493.486 191.036, 498.542 190.091 C 503.340 189.195, 503.495 189.246, 506.861 192.814 C 508.747 194.814, 510.865 197.827, 511.568 199.509 C 512.271 201.192, 517.924 207.611, 524.130 213.775 C 535.604 225.171, 539.764 227.778, 544.553 226.576 L 547 225.962 547 175.516 C 547 126.665, 546.939 125.038, 545.066 124.035 C 543.138 123.003, 57.659 122.672, 53.693 123.700 M 52.783 276.679 C 51.749 276.953, 50.796 278.569, 50.389 280.740 C 49.452 285.735, 50.572 306.563, 52.392 318 C 56.874 346.158, 58.534 355.438, 59.316 356.702 C 59.714 357.346, 60.667 361.164, 61.433 365.187 C 62.200 369.209, 63.789 375.650, 64.966 379.500 C 66.142 383.350, 67.547 388.300, 68.087 390.500 C 68.628 392.700, 69.729 395.918, 70.535 397.651 C 71.341 399.384, 72.015 401.409, 72.034 402.151 C 72.053 402.893, 72.937 405.300, 74 407.500 C 75.063 409.700, 75.947 412.201, 75.966 413.059 C 75.985 413.916, 76.661 415.491, 77.468 416.559 C 78.276 417.626, 78.951 419.126, 78.968 419.890 C 79.033 422.724, 97.065 459.130, 103.908 470.242 C 111.818 483.087, 113.342 483.985, 119.946 479.688 C 134.009 470.540, 139.534 467.096, 146.058 463.411 C 147.119 462.812, 148.777 461.643, 149.743 460.813 C 150.709 459.983, 152.175 459.008, 153 458.645 C 153.825 458.283, 157.087 456.302, 160.249 454.243 C 163.410 452.184, 173.760 445.584, 183.249 439.575 C 203.610 426.680, 212.404 421.049, 220.321 415.834 C 223.522 413.725, 226.320 412, 226.539 412 C 226.758 412, 229.539 410.252, 232.719 408.117 C 235.898 405.981, 241.875 402.092, 246 399.475 C 262.249 389.167, 265.187 387.308, 273.617 382 C 278.421 378.975, 286.551 373.800, 291.682 370.500 C 296.814 367.200, 303.822 362.723, 307.256 360.552 C 310.690 358.381, 318 353.707, 323.500 350.166 C 333.243 343.893, 340.887 339.017, 348 334.536 C 349.925 333.324, 354.200 330.597, 357.500 328.478 C 360.800 326.358, 365.075 323.642, 367 322.441 C 368.925 321.241, 372.975 318.686, 376 316.763 C 429.370 282.840, 433.935 279.602, 431.631 277.298 C 430.810 276.476, 55.860 275.864, 52.783 276.679 M 482.500 279.062 C 479.750 280.673, 476.825 282.301, 476 282.678 C 475.175 283.056, 473.375 284.106, 472 285.011 C 470.625 285.916, 466.800 288.384, 463.500 290.494 C 460.200 292.605, 455.787 295.495, 453.693 296.916 C 451.600 298.337, 448.423 300.400, 446.635 301.500 C 440.727 305.133, 426.054 314.438, 420.229 318.243 C 417.078 320.302, 413.825 322.305, 413 322.693 C 412.175 323.082, 407.995 325.785, 403.711 328.700 C 399.428 331.615, 395.697 334, 395.421 334 C 395.145 334, 393.700 334.850, 392.210 335.888 C 390.719 336.926, 386.800 339.463, 383.500 341.524 C 377.131 345.502, 371.252 349.242, 361.500 355.516 C 358.200 357.639, 353.925 360.358, 352 361.559 C 345.818 365.413, 337.762 370.550, 327 377.500 C 315.844 384.704, 309.408 388.808, 301.807 393.564 C 299.226 395.179, 292.251 399.606, 286.307 403.402 C 272.361 412.308, 270.015 413.802, 261 419.515 C 256.875 422.129, 251.025 425.895, 248 427.884 C 241.255 432.318, 240.146 433.005, 235.881 435.390 C 234.021 436.429, 232.275 437.575, 232 437.936 C 231.725 438.297, 226.775 441.478, 221 445.005 C 215.225 448.531, 208.367 452.898, 205.760 454.708 C 203.153 456.519, 200.829 458, 200.594 458 C 200.183 458, 190.805 464.061, 178.719 472.137 C 175.539 474.262, 172.722 476, 172.458 476 C 172.195 476, 169.739 477.575, 167 479.500 C 164.261 481.425, 161.811 483, 161.555 483 C 161.078 483, 154.303 487.324, 152.500 488.779 C 151.950 489.223, 148.874 491.141, 145.664 493.043 C 132.768 500.683, 129.964 502.606, 128.338 504.928 C 126.518 507.526, 126.661 507.783, 136.441 519.500 C 145.936 530.875, 146.379 531.068, 153.616 526.962 C 156.852 525.126, 160.625 522.854, 162 521.913 C 163.375 520.973, 167.875 518.079, 172 515.482 C 179.831 510.554, 181.686 509.364, 194 501.369 C 198.125 498.691, 201.960 496.275, 202.522 496 C 203.084 495.725, 206.009 493.891, 209.022 491.925 C 212.035 489.959, 217.650 486.382, 221.500 483.976 C 231.614 477.655, 248.056 467.094, 251.210 464.892 C 252.700 463.851, 254.125 463, 254.376 463 C 254.813 463, 263.939 457.111, 276.281 448.863 C 279.461 446.738, 282.269 445, 282.521 445 C 282.773 445, 285.571 443.201, 288.739 441.001 C 291.908 438.802, 294.885 437.002, 295.356 437.001 C 295.827 437.001, 297.852 435.733, 299.856 434.184 C 303.237 431.571, 309.401 427.630, 315.821 423.975 C 317.295 423.137, 321.875 420.212, 326 417.475 C 330.125 414.739, 333.950 412.275, 334.500 412 C 335.050 411.725, 338.875 409.309, 343 406.631 C 350.658 401.660, 351.935 400.833, 365 392.394 C 369.125 389.729, 373.705 386.863, 375.179 386.025 C 381.438 382.462, 387.789 378.388, 391.894 375.303 C 394.310 373.486, 396.656 372, 397.105 372 C 397.555 372, 401.558 369.525, 406 366.500 C 410.442 363.475, 414.289 361, 414.549 361 C 414.808 361, 417.261 359.425, 420 357.500 C 422.739 355.575, 425.214 354, 425.500 354 C 425.786 354, 428.176 352.538, 430.810 350.750 C 433.444 348.962, 436.368 347.050, 437.307 346.500 C 439.623 345.144, 464.517 329.385, 469.500 326.120 C 471.700 324.679, 474.095 322.938, 474.821 322.250 C 475.548 321.563, 476.547 321, 477.040 321 C 477.533 321, 480.539 319.255, 483.719 317.123 C 489.519 313.234, 505.716 302.752, 516 296.233 C 519.025 294.315, 524.102 291.003, 527.281 288.873 C 530.461 286.743, 533.298 285, 533.585 285 C 534.765 285, 541 279.414, 541 278.357 C 541 276.247, 537.945 276, 512.668 276.066 L 487.500 276.133 482.500 279.062 M 528 319.744 C 524.975 321.734, 520.250 324.788, 517.500 326.531 C 514.750 328.275, 508.675 332.179, 504 335.209 C 499.325 338.238, 493.025 342.292, 490 344.217 C 486.975 346.143, 480.450 350.317, 475.500 353.493 C 470.550 356.668, 464.025 360.839, 461 362.760 C 457.975 364.682, 452.898 367.997, 449.719 370.127 C 446.539 372.257, 443.638 374, 443.272 374 C 442.907 374, 441.008 375.071, 439.054 376.381 C 437.099 377.690, 432.125 380.901, 428 383.515 C 423.875 386.129, 418.025 389.840, 415 391.763 C 411.975 393.686, 407.925 396.259, 406 397.480 C 404.075 398.702, 398.450 402.297, 393.500 405.470 C 388.550 408.642, 382.250 412.672, 379.500 414.425 C 376.750 416.177, 372.025 419.203, 369 421.148 C 365.975 423.093, 360.800 426.387, 357.500 428.469 C 354.200 430.551, 348.898 433.997, 345.719 436.127 C 342.539 438.257, 339.727 440, 339.471 440 C 339.214 440, 336.812 441.575, 334.133 443.500 C 331.453 445.425, 328.992 447, 328.662 447 C 328.332 447, 325.461 448.748, 322.281 450.883 C 316.390 454.841, 306.875 460.906, 297 467 C 291 470.702, 279.541 477.923, 274 481.493 C 272.075 482.734, 265.775 486.789, 260 490.505 C 254.225 494.222, 246.575 499.172, 243 501.507 C 239.425 503.841, 233.125 507.877, 229 510.477 C 224.875 513.076, 220.375 515.973, 219 516.913 C 217.625 517.854, 213.864 520.171, 210.642 522.062 C 207.421 523.953, 203.751 526.175, 202.489 527 C 201.226 527.825, 197.166 530.300, 193.467 532.500 C 189.767 534.700, 185.713 537.175, 184.458 538 C 183.203 538.825, 179.581 541.012, 176.410 542.859 C 170.718 546.175, 167.067 549.551, 167.066 551.500 C 167.065 553.487, 186.066 570.394, 206 586.143 C 226.228 602.126, 259.791 623.773, 286.273 637.917 C 295.720 642.963, 297.931 642.393, 320.316 629.131 C 324.615 626.584, 329.340 623.864, 330.816 623.087 C 332.292 622.309, 336.796 619.497, 340.823 616.837 C 344.851 614.177, 348.343 612, 348.584 612 C 348.824 612, 351.266 610.425, 354.010 608.500 C 356.755 606.575, 361.363 603.354, 364.250 601.341 C 370.362 597.082, 371.245 596.428, 384.500 586.345 C 393.179 579.742, 402.988 571.694, 415.992 560.505 C 421.993 555.341, 437.367 539.788, 443.056 533.124 C 446.050 529.617, 448.977 526.242, 449.560 525.624 C 452.382 522.630, 461.734 511.310, 462.562 509.887 C 463.078 508.999, 464.769 506.749, 466.319 504.887 C 471.570 498.579, 483.938 479.959, 491.353 467.199 C 499.524 453.140, 513.982 424.316, 514.032 421.988 C 514.049 421.170, 514.724 419.626, 515.532 418.559 C 516.339 417.491, 517.003 415.916, 517.006 415.059 C 517.010 414.201, 517.701 412.179, 518.543 410.565 C 519.384 408.952, 520.468 406.027, 520.951 404.065 C 521.434 402.104, 523.218 396.679, 524.915 392.008 C 526.612 387.338, 528 382.478, 528 381.209 C 528 379.939, 528.636 377.670, 529.414 376.166 C 530.192 374.662, 531.135 371.646, 531.509 369.465 C 531.884 367.284, 532.788 363.250, 533.520 360.500 C 537.771 344.519, 541.782 320.480, 540.677 317.601 C 539.618 314.841, 534.013 315.788, 528 319.744 M 98.250 326.526 C 93.844 329.635, 96.858 336.452, 103.167 337.649 C 111.238 339.180, 109.960 343, 101.378 343 C 96.168 343, 94.344 344.150, 97.582 345.393 C 99.601 346.168, 109.809 346.158, 112.717 345.378 C 113.936 345.052, 115.214 343.900, 115.557 342.820 C 116.728 339.132, 115.154 336.548, 109.980 333.662 C 103.819 330.225, 103.974 328.438, 110.413 328.667 C 114.313 328.805, 115.060 328.549, 114.797 327.167 C 114.337 324.757, 101.463 324.259, 98.250 326.526 M 123.667 325.667 C 122.461 326.872, 122.925 343.525, 124.200 344.800 C 125.629 346.229, 139.789 346.419, 141.972 345.038 C 143.268 344.219, 143.268 344.045, 141.972 343.583 C 141.162 343.295, 138.254 342.933, 135.509 342.780 C 131.545 342.558, 130.444 342.113, 130.161 340.620 C 129.696 338.178, 131.610 337.034, 136.191 337.015 C 140.199 336.999, 141.346 336.065, 140.396 333.590 C 139.980 332.506, 138.523 332, 135.820 332 C 132.582 332, 131.914 331.678, 132.185 330.250 C 132.427 328.973, 133.665 328.417, 136.759 328.193 C 139.645 327.983, 141 327.424, 141 326.443 C 141 325.301, 139.260 325, 132.667 325 C 128.083 325, 124.033 325.300, 123.667 325.667 M 149.667 325.667 C 149.300 326.033, 149 330.547, 149 335.698 C 149 343.135, 149.311 345.182, 150.513 345.643 C 152.485 346.400, 155 344.272, 155 341.846 C 155 339.409, 157.720 338.344, 160.119 339.842 C 162.974 341.626, 165.604 341.225, 167.283 338.750 C 169.170 335.969, 170.893 337.241, 171.898 342.157 C 172.393 344.577, 173.123 345.500, 174.541 345.500 C 176.341 345.500, 176.523 344.664, 176.786 335.188 L 177.071 324.875 173.293 325.188 C 170.357 325.430, 169.234 326.088, 168.258 328.134 C 167.567 329.583, 165.786 331.566, 164.300 332.539 C 161.712 334.235, 161.554 334.234, 160.549 332.521 C 156.904 326.304, 152.072 323.261, 149.667 325.667 M 185.667 325.667 C 185.300 326.033, 185 330.253, 185 335.044 C 185 341.567, 185.377 344.068, 186.500 345 C 187.697 345.993, 188.303 345.993, 189.500 345 C 190.325 344.315, 191 343.167, 191 342.449 C 191 339.946, 194.121 338, 198.137 338 C 203.954 338, 206 336.579, 206 332.537 C 206 327.156, 202.434 325, 193.532 325 C 189.573 325, 186.033 325.300, 185.667 325.667 M 212.215 335.213 L 212.500 345.500 221.750 345.500 C 231.780 345.500, 234.782 343.706, 225.595 343.203 C 215.796 342.666, 215.831 337, 225.632 337 C 227.970 337, 230.172 336.530, 230.527 335.956 C 231.550 334.301, 229.003 332.001, 226.128 331.985 C 223.210 331.968, 220.213 330.453, 221.181 329.485 C 221.524 329.143, 223.947 328.556, 226.566 328.181 C 234.381 327.063, 231.734 325.522, 221.470 325.213 L 211.929 324.927 212.215 335.213 M 238.667 325.667 C 238.300 326.033, 238 330.485, 238 335.560 C 238 343.158, 238.287 344.896, 239.627 345.410 C 241.693 346.203, 243.790 344.488, 244.190 341.677 C 244.636 338.548, 248.324 338.325, 250.654 341.287 C 252.982 344.247, 256.715 346.323, 258.486 345.644 C 259.534 345.241, 259.392 344.279, 257.813 341.087 L 255.811 337.041 257.905 333.654 L 259.998 330.267 257.926 327.634 C 255.987 325.169, 255.326 325, 247.594 325 C 243.051 325, 239.033 325.300, 238.667 325.667 M 245.336 329.566 C 244.470 331.825, 246.244 334.500, 248.609 334.500 C 251.606 334.500, 251.267 328.609, 248.246 328.180 C 246.831 327.979, 245.747 328.495, 245.336 329.566 M 192.667 329.667 C 192.300 330.033, 192 331.383, 192 332.667 C 192 334.497, 192.546 335, 194.531 335 C 195.924 335, 197.324 334.319, 197.643 333.487 C 198.680 330.786, 194.645 327.689, 192.667 329.667 M 270.071 505.250 C 269.587 506.488, 267.798 510.579, 266.096 514.343 C 261.296 524.954, 262.258 528.172, 268.862 523.595 C 273.569 520.334, 276.903 520.316, 281.632 523.525 C 283.678 524.913, 285.835 525.879, 286.426 525.670 C 288.285 525.013, 287.020 520.001, 282.815 511.355 C 278.753 503.004, 278.749 503, 274.851 503 C 271.733 503, 270.774 503.452, 270.071 505.250 M 295.667 503.667 C 294.710 504.623, 294.872 523.249, 295.850 524.791 C 297.113 526.782, 314.500 526.045, 314.500 524 C 314.500 522.576, 313.770 522.406, 306.321 522.092 C 302.165 521.917, 301 519.472, 301 510.929 C 301 503.289, 300.915 503, 298.667 503 C 297.383 503, 296.033 503.300, 295.667 503.667 M 314 504.468 C 314 505.396, 314.899 506, 316.277 506 C 317.530 506, 319.555 506.701, 320.777 507.557 C 322.628 508.853, 323.002 510.066, 323.014 514.807 C 323.033 522.883, 323.803 525.170, 326.380 524.802 C 328.275 524.532, 328.553 523.693, 329 516.898 C 329.539 508.705, 330.758 506.293, 334.604 505.809 C 335.956 505.639, 337.050 505.050, 337.035 504.500 C 337.019 503.910, 332.294 503.385, 325.504 503.218 C 315.716 502.979, 314 503.165, 314 504.468 M 343 503.878 C 343 504.360, 343.675 505.315, 344.500 506 C 346.560 507.709, 346.607 520.252, 344.559 521.951 C 341.802 524.239, 343.909 526, 349.407 526 C 355.994 526, 357.617 524.600, 354.953 521.213 C 352.275 517.808, 352.300 510.160, 355 506.727 C 356.100 505.329, 357 503.918, 357 503.592 C 357 503.267, 353.850 503, 350 503 C 346.150 503, 343 503.395, 343 503.878 M 367.409 505.014 C 360.628 509.360, 361.188 520.585, 368.372 524.313 C 373.086 526.760, 379.763 526.672, 384.810 524.097 C 393.185 519.825, 394.454 513.218, 388.118 506.882 C 384.356 503.121, 384.021 503.001, 377.368 503.017 C 372.251 503.029, 369.712 503.539, 367.409 505.014 M 398.667 503.667 C 397.691 504.643, 397.881 522.265, 398.885 523.848 C 400.350 526.161, 403.318 524.713, 404.215 521.248 C 405.392 516.709, 408.397 516.991, 413.638 522.135 C 416.365 524.812, 418.407 526.058, 419.426 525.667 C 421.416 524.903, 421.452 522.620, 419.500 521 C 417.599 519.422, 417.587 516.929, 419.468 514.441 C 420.276 513.374, 420.951 511.063, 420.968 509.307 C 421.017 504.367, 418.195 503, 407.944 503 C 403.208 503, 399.033 503.300, 398.667 503.667 M 372.455 508.455 C 369.134 511.775, 369.010 518.193, 372.223 520.443 C 374.777 522.233, 378.290 522.450, 381.023 520.988 C 383.482 519.672, 384.563 513.923, 382.928 510.855 C 380.112 505.570, 376.229 504.680, 372.455 508.455 M 405.410 507.375 C 404.211 510.498, 405.424 512.500, 408.514 512.500 C 411.165 512.500, 411.500 512.164, 411.500 509.500 C 411.500 506.969, 411.069 506.450, 408.744 506.183 C 406.986 505.981, 405.779 506.412, 405.410 507.375 M 273.190 513.271 C 271.755 515, 273.353 517.462, 275.399 516.677 C 277.361 515.924, 277.447 514.615, 275.633 513.110 C 274.603 512.255, 274 512.295, 273.190 513.271" stroke="none" fill="#2a1e66" fill-rule="evenodd"/><path d="M 23.750 23.080 C 22.097 24.043, 22 31.616, 22 159.800 C 22 273.753, 22.230 296.598, 23.433 302.350 C 24.221 306.117, 25.121 309.455, 25.433 309.766 C 26.496 310.829, 26.003 302.372, 24.482 293.426 C 23.167 285.700, 22.999 267.023, 23.232 154.500 L 23.500 24.500 297.940 24.248 C 516.832 24.047, 572.541 24.250, 573.175 25.248 C 573.612 25.937, 573.980 86.575, 573.992 160 C 574.015 288.855, 573.945 294.022, 571.976 308.500 C 568.505 334.032, 565.689 350.503, 564.142 354.315 C 563.514 355.863, 563.010 358.338, 563.022 359.815 C 563.041 362.179, 563.281 361.978, 565.022 358.141 C 566.110 355.743, 567 352.365, 567 350.634 C 567 348.903, 567.477 345.915, 568.061 343.993 C 569.589 338.962, 573.063 317.178, 574.200 305.500 C 574.750 299.845, 575.362 236.509, 575.607 159.733 L 576.042 23.966 573.456 22.983 C 569.813 21.598, 26.129 21.694, 23.750 23.080 M 54.228 55.230 C 52.979 55.832, 51.629 57.489, 51.228 58.913 C 50.260 62.353, 50.289 108.747, 51.262 112.221 C 51.681 113.718, 52.902 115.412, 53.976 115.987 C 55.317 116.705, 132.283 117.028, 300.214 117.021 C 528.749 117.011, 544.581 116.901, 545.750 115.314 C 546.680 114.051, 547 106.396, 547 85.366 C 547 57.304, 546.985 57.103, 544.777 55.557 C 542.780 54.158, 517.939 54.007, 299.527 54.068 C 125.653 54.116, 55.854 54.447, 54.228 55.230 M 158.386 68.806 C 152.756 71.124, 151.035 72.753, 148.863 77.819 C 146.434 83.487, 146.550 88.263, 149.281 94.870 C 152.209 101.957, 157.468 105, 166.786 105 C 180.259 105, 187.685 95.724, 185.560 81.551 C 183.879 70.344, 170.214 63.935, 158.386 68.806 M 194.999 68 C 194.316 68.423, 194.048 74.875, 194.226 86.574 L 194.500 104.500 197 104.500 C 199.467 104.500, 199.504 104.376, 199.788 95.204 C 200.007 88.143, 200.430 85.772, 201.546 85.344 C 203.150 84.728, 208 87.469, 208 88.992 C 208 90.675, 216.379 102.202, 218.717 103.734 C 220.089 104.633, 221.976 104.972, 223.493 104.591 L 226 103.962 225.985 87.231 C 225.976 78.029, 225.588 69.898, 225.122 69.163 C 224.655 68.427, 223.200 67.977, 221.887 68.163 C 219.604 68.485, 219.478 68.914, 219 77.990 C 218.318 90.925, 217.199 90.942, 208.603 78.154 C 203.079 69.934, 201.416 68.141, 198.985 67.785 C 197.369 67.547, 195.575 67.644, 194.999 68 M 238.250 67.793 C 234.819 68.053, 234 68.489, 234 70.057 C 234 71.126, 234.338 72.026, 234.750 72.058 C 240.660 72.512, 243.485 73.160, 244.156 74.218 C 244.603 74.923, 244.976 81.672, 244.985 89.215 C 244.999 101.898, 245.150 103.010, 247 104 C 248.421 104.760, 249.579 104.760, 251 104 C 252.851 103.009, 253 101.906, 253 89.165 C 253 79.792, 253.383 75.017, 254.200 74.200 C 254.860 73.540, 257.055 73, 259.078 73 C 262.859 73, 266.086 70.626, 264.408 69.078 C 263.422 68.170, 245.132 67.271, 238.250 67.793 M 273.910 68.605 C 271.790 71.154, 271.275 102.154, 273.324 103.854 C 274.336 104.694, 278.694 104.976, 287.639 104.781 L 300.500 104.500 300.500 102 C 300.500 99.520, 300.421 99.498, 290.535 99.211 C 279.893 98.903, 279.041 98.494, 279.015 93.684 C 278.983 87.789, 280.229 87, 289.567 87 C 296.434 87, 298.181 86.693, 298.677 85.399 C 299.639 82.893, 297.123 82.032, 288.785 82.015 C 281.949 82.002, 280.941 81.758, 279.932 79.874 C 279.106 78.330, 279.091 77.096, 279.876 75.374 C 280.893 73.140, 281.474 72.999, 289.729 72.985 C 299.079 72.968, 301.663 72.170, 300.677 69.601 C 300.166 68.268, 298.230 68, 289.113 68 C 283.091 68, 277.524 67.755, 276.742 67.454 C 275.960 67.154, 274.686 67.672, 273.910 68.605 M 383.467 68.401 C 381.774 69.638, 381.593 71.346, 381.549 86.523 C 381.507 100.890, 381.730 103.424, 383.114 104.298 C 384.002 104.859, 385.464 105.036, 386.364 104.691 C 387.792 104.143, 388 101.849, 388 86.654 C 388 67.977, 387.392 65.530, 383.467 68.401 M 402.347 69.583 C 396.842 72.904, 396.140 75.856, 399.495 81.581 C 401.239 84.557, 402.950 86.169, 404.786 86.565 C 406.279 86.887, 410.087 88.071, 413.250 89.197 C 418.309 90.998, 419 91.566, 419 93.922 C 419 97.738, 417.258 99, 411.987 99 C 408.167 99, 406.880 98.484, 404.500 96 C 399.970 91.271, 395.892 92.559, 397.367 98.252 C 398.446 102.417, 403.834 105, 411.444 105 C 419.558 105, 423.912 102.812, 426.453 97.458 C 430.027 89.926, 423.556 83.762, 408.689 80.541 C 406.238 80.009, 405.918 79.528, 406.189 76.782 C 406.641 72.200, 410.529 71.376, 416.562 74.584 C 421.869 77.406, 423.560 77.588, 424.389 75.428 C 427.049 68.497, 411.140 64.279, 402.347 69.583 M 435.250 67.663 C 434.236 68.072, 433.360 71.903, 434.250 72.038 C 434.387 72.059, 436.300 72.323, 438.500 72.626 C 445.078 73.532, 445.387 74.277, 445.540 89.607 C 445.655 101.139, 445.930 103.381, 447.325 104.162 C 448.369 104.746, 449.712 104.689, 450.987 104.007 C 452.856 103.007, 453 101.937, 453 89.087 C 453 78.729, 453.338 74.965, 454.342 74.131 C 455.448 73.213, 458.578 72.488, 463.250 72.067 C 463.663 72.030, 464 71.100, 464 70 C 464 68.107, 463.333 68, 451.582 68 C 444.752 68, 438.564 67.811, 437.832 67.579 C 437.099 67.348, 435.938 67.385, 435.250 67.663 M 480.993 68.137 C 479.320 68.716, 477.681 70.750, 476.065 74.252 C 472.338 82.328, 466.882 95.272, 466.265 97.500 C 465.960 98.600, 465.276 100.057, 464.744 100.737 C 463.062 102.888, 464.735 105.163, 467.744 104.817 C 469.712 104.591, 470.891 103.612, 471.868 101.396 C 473.718 97.196, 477.787 95, 483.717 95 C 487.784 95, 489.066 95.472, 491.191 97.750 C 492.601 99.263, 494.291 101.539, 494.945 102.810 C 495.822 104.513, 496.840 105.038, 498.817 104.810 C 501.143 104.541, 501.457 104.105, 501.178 101.532 C 501.001 99.900, 500.248 97.425, 499.505 96.032 C 498.189 93.564, 497.246 91.439, 491.508 78 C 487.420 68.425, 485.464 66.591, 480.993 68.137 M 101.200 69.200 C 100.363 70.037, 100 75.443, 100 87.093 C 100 101.646, 100.210 103.867, 101.641 104.416 C 105.360 105.843, 106.995 104.126, 107.100 98.683 C 107.228 91.989, 108.230 88.500, 110.021 88.500 C 111.468 88.500, 112.160 90.089, 114.024 97.705 C 116.850 109.250, 124.586 106.299, 126.485 92.952 C 127.273 87.412, 128.334 85.530, 130.254 86.267 C 131.871 86.888, 132.972 92.073, 132.989 99.143 C 132.997 102.501, 133.450 103.959, 134.627 104.410 C 138.349 105.839, 139 103.386, 139 87.943 C 139 69.696, 138.491 68, 133.010 68 C 129.529 68, 128.694 68.449, 126.973 71.250 C 125.874 73.037, 124.696 76.203, 124.354 78.285 C 123.670 82.457, 120.615 87, 118.495 87 C 117.095 87, 116.654 85.992, 115.449 80.040 C 115.064 78.137, 113.921 74.649, 112.910 72.290 C 111.148 68.179, 110.890 68, 106.736 68 C 104.351 68, 101.860 68.540, 101.200 69.200 M 340 69.333 C 340 70.136, 341.348 74.102, 342.997 78.146 C 344.645 82.191, 345.995 85.882, 345.997 86.349 C 345.998 86.816, 346.631 88.616, 347.403 90.349 C 348.175 92.082, 349.963 96.115, 351.376 99.312 C 353.895 105.008, 354.019 105.118, 357.622 104.812 C 361.655 104.470, 361.868 104.204, 365.071 95.500 C 367.568 88.717, 368.848 85.565, 371.882 78.723 C 373.047 76.096, 374 72.579, 374 70.907 C 374 68.229, 373.695 67.905, 371.438 68.184 C 368.601 68.534, 366.716 71.525, 363.049 81.500 C 359.287 91.734, 359.144 91.993, 357.587 91.395 C 355.911 90.752, 352 83.737, 352 81.373 C 352 80.513, 351.400 78.614, 350.667 77.154 C 349.933 75.694, 348.682 73.150, 347.886 71.500 C 346.792 69.234, 345.650 68.423, 343.219 68.187 C 340.921 67.963, 340 68.291, 340 69.333 M 160.708 75.090 C 156.509 77.306, 155 80.190, 155 86 C 155 91.597, 156.396 94.463, 160.295 96.873 C 165.382 100.017, 169.911 99.657, 174.405 95.750 C 177.280 93.250, 178.270 91.534, 178.695 88.310 C 179.514 82.095, 178.416 79.314, 173.829 75.991 C 169.036 72.519, 165.977 72.309, 160.708 75.090 M 480.035 81.934 C 477.376 86.903, 480.344 91.978, 485.038 90.488 C 487.805 89.610, 487.606 84.918, 484.686 82.174 C 481.849 79.509, 481.347 79.483, 480.035 81.934 M 53.693 123.700 C 52.699 123.958, 51.462 125.285, 50.943 126.649 C 50.396 128.090, 50 151.249, 50 181.874 C 50 240.678, 49.783 238.784, 56.384 237.713 C 60.809 236.995, 65.783 233.159, 72.454 225.321 C 78.519 218.195, 85.603 212, 87.686 212 C 89.462 212, 94.828 217.484, 100.165 224.754 C 103.081 228.724, 104.606 229.891, 107.618 230.456 C 110.640 231.023, 111.668 230.807, 112.707 229.386 C 113.423 228.406, 113.727 226.681, 113.383 225.552 C 112.618 223.047, 107.023 215.990, 101.227 210.220 C 98.862 207.866, 96.461 204.716, 95.891 203.220 C 94.277 198.989, 95.697 192.536, 99.026 188.972 C 102.466 185.290, 104.360 185.532, 110.500 190.443 C 113.095 192.518, 116.922 194.230, 121.395 195.317 C 130.627 197.560, 139.995 202.106, 143.887 206.233 C 145.638 208.089, 148.308 212.059, 149.819 215.054 C 156.404 228.102, 160.978 233, 166.576 233 C 170.343 233, 171.432 231.842, 170.628 228.693 C 170.028 226.341, 165.281 218.753, 160.664 212.765 C 159.105 210.742, 158.119 208.617, 158.473 208.043 C 159.331 206.655, 172.857 206.706, 176.891 208.112 C 179.262 208.938, 180.777 210.587, 182.791 214.530 C 184.281 217.448, 188.543 223.023, 192.261 226.918 C 199.248 234.237, 201.781 235.343, 205.435 232.671 C 207.073 231.474, 207.123 230.953, 205.941 227.421 C 205.219 225.264, 203.893 222.819, 202.995 221.986 C 202.096 221.153, 200.110 218.338, 198.582 215.730 C 196.981 212.998, 194.850 210.749, 193.553 210.424 C 191.421 209.889, 188 204.478, 188 201.640 C 188 200.930, 189.107 199.309, 190.459 198.038 C 191.943 196.645, 193.165 194.096, 193.540 191.614 C 194.876 182.774, 199.875 180, 214.473 180 L 225.045 180 229.546 184.150 C 233.629 187.913, 234.283 188.192, 236.577 187.147 C 237.968 186.513, 239.576 184.646, 240.151 182.997 C 241.008 180.539, 241.763 179.992, 244.348 179.956 C 246.082 179.931, 254.742 179.950, 263.594 179.997 C 274.432 180.054, 282.107 179.583, 287.094 178.556 C 292.451 177.452, 298.512 177.142, 309 177.438 C 323.351 177.843, 323.503 177.872, 323.795 180.206 C 324.058 182.305, 322.087 185.913, 317 192.648 C 316.175 193.740, 312.575 196.602, 309 199.009 C 291.954 210.485, 282 219.874, 282 224.478 C 282 230.976, 289.563 230.152, 303.500 222.135 C 312.667 216.862, 316.632 213.392, 322.368 205.622 C 327.689 198.415, 335 186.545, 335 185.113 C 335 184.684, 336.791 182.392, 338.981 180.021 L 342.961 175.709 369.870 176.225 C 394.152 176.689, 397.028 176.923, 399.330 178.620 C 401.700 180.367, 404.005 185.244, 405.900 192.524 C 407.302 197.910, 408.989 199.977, 414.539 203.109 C 417.538 204.801, 422.852 208.957, 426.348 212.343 C 436.233 221.918, 438.076 223, 444.495 223 C 450.715 223, 449.491 223.616, 469.616 210.364 C 477.379 205.252, 485.058 199.592, 486.680 197.785 C 491.696 192.197, 493.486 191.036, 498.542 190.091 C 503.340 189.195, 503.495 189.246, 506.861 192.814 C 508.747 194.814, 510.865 197.827, 511.568 199.509 C 512.271 201.192, 517.924 207.611, 524.130 213.775 C 535.604 225.171, 539.764 227.778, 544.553 226.576 L 547 225.962 547 175.516 C 547 126.665, 546.939 125.038, 545.066 124.035 C 543.138 123.003, 57.659 122.672, 53.693 123.700 M 53.565 126.578 C 52.155 127.988, 52.011 133.996, 52.241 181.830 L 52.500 235.500 55.803 235.817 C 58.858 236.111, 60.029 235.190, 71.376 223.567 C 82.405 212.271, 83.995 211, 87.101 211 C 91.619 211, 94.156 212.890, 98.573 219.544 C 102.659 225.700, 106.356 229, 109.166 229 C 114.362 229, 111.796 223.964, 100.762 212.500 C 95.204 206.726, 94.003 204.887, 93.906 202 C 93.670 195.006, 94.192 192.430, 96.587 188.750 C 98.699 185.505, 99.539 185, 102.820 185 C 106.357 185, 112.251 188.170, 114.012 191.019 C 114.361 191.585, 117.089 192.453, 120.074 192.949 C 129.008 194.434, 139.195 199.139, 144.846 204.390 C 146.686 206.101, 149.564 210.425, 151.241 214 C 154.903 221.804, 160.086 228.476, 164.098 230.550 C 166.727 231.910, 167.097 231.910, 167.620 230.547 C 168.596 228.005, 166.315 223.179, 160.954 216.442 C 157.512 212.117, 155.961 209.299, 156.178 207.768 C 156.483 205.619, 156.997 205.484, 166 205.186 C 177.727 204.799, 180.638 206.055, 184.246 213.059 C 187.741 219.841, 199.149 232, 202.018 232 C 204.024 232, 204.202 231.629, 203.693 228.494 C 203.380 226.565, 201.521 223.032, 199.562 220.641 C 197.603 218.250, 196 215.763, 196 215.113 C 196 214.464, 194.440 213.012, 192.534 211.888 C 186.100 208.091, 184.162 200.608, 188.557 196.534 C 189.973 195.223, 191.647 192.051, 192.307 189.431 C 193.192 185.921, 194.493 183.896, 197.343 181.599 L 201.186 178.500 214.106 178.500 L 227.027 178.500 230.455 182.241 C 232.340 184.299, 234.471 185.752, 235.191 185.469 C 235.911 185.187, 237.517 183.391, 238.759 181.478 L 241.018 178 262.559 178 C 279.871 178, 284.676 177.702, 287.037 176.481 C 291.284 174.285, 322.675 174.531, 325.250 176.781 C 326.212 177.622, 327 178.820, 327 179.444 C 327 181.162, 323.790 187.098, 320.596 191.285 C 317.824 194.919, 316.031 196.357, 297.254 210 C 284.021 219.615, 280.460 226, 288.330 226 C 292.354 226, 305.429 219.528, 311.568 214.498 C 315.963 210.896, 324.658 200.469, 327.102 195.869 C 327.871 194.421, 329.756 190.821, 331.290 187.869 C 332.825 184.916, 335.594 180.700, 337.445 178.500 L 340.811 174.500 369.478 174.632 L 398.145 174.765 400.823 177.348 C 403.489 179.920, 405.606 184.438, 408.159 193 C 409.272 196.734, 410.343 198.011, 414.452 200.500 C 417.175 202.150, 422.800 206.687, 426.952 210.583 C 435.493 218.597, 440.644 222.014, 444.118 221.969 C 445.428 221.952, 448.525 220.936, 451 219.711 C 459.603 215.456, 482.527 199.677, 487 194.933 C 491.386 190.280, 497.774 187.048, 502.646 187.015 C 505.086 186.998, 510.571 192.759, 512.559 197.427 C 513.900 200.577, 531.710 219.233, 536.911 222.936 C 538.505 224.071, 540.981 225, 542.414 225 L 545.019 225 544.759 175.250 L 544.500 125.500 299.823 125.248 C 77.811 125.019, 55 125.143, 53.565 126.578 M 52.783 276.679 C 51.749 276.953, 50.796 278.569, 50.389 280.740 C 49.452 285.735, 50.572 306.563, 52.392 318 C 56.874 346.158, 58.534 355.438, 59.316 356.702 C 59.714 357.346, 60.667 361.164, 61.433 365.187 C 62.200 369.209, 63.789 375.650, 64.966 379.500 C 66.142 383.350, 67.547 388.300, 68.087 390.500 C 68.628 392.700, 69.729 395.918, 70.535 397.651 C 71.341 399.384, 72.015 401.409, 72.034 402.151 C 72.053 402.893, 72.937 405.300, 74 407.500 C 75.063 409.700, 75.947 412.201, 75.966 413.059 C 75.985 413.916, 76.661 415.491, 77.468 416.559 C 78.276 417.626, 78.951 419.126, 78.968 419.890 C 79.033 422.724, 97.065 459.130, 103.908 470.242 C 111.818 483.087, 113.342 483.985, 119.946 479.688 C 134.009 470.540, 139.534 467.096, 146.058 463.411 C 147.119 462.812, 148.777 461.643, 149.743 460.813 C 150.709 459.983, 152.175 459.008, 153 458.645 C 153.825 458.283, 157.087 456.302, 160.249 454.243 C 163.410 452.184, 173.760 445.584, 183.249 439.575 C 203.610 426.680, 212.404 421.049, 220.321 415.834 C 223.522 413.725, 226.320 412, 226.539 412 C 226.758 412, 229.539 410.252, 232.719 408.117 C 235.898 405.981, 241.875 402.092, 246 399.475 C 262.249 389.167, 265.187 387.308, 273.617 382 C 278.421 378.975, 286.551 373.800, 291.682 370.500 C 296.814 367.200, 303.822 362.723, 307.256 360.552 C 310.690 358.381, 318 353.707, 323.500 350.166 C 333.243 343.893, 340.887 339.017, 348 334.536 C 349.925 333.324, 354.200 330.597, 357.500 328.478 C 360.800 326.358, 365.075 323.642, 367 322.441 C 368.925 321.241, 372.975 318.686, 376 316.763 C 429.370 282.840, 433.935 279.602, 431.631 277.298 C 430.810 276.476, 55.860 275.864, 52.783 276.679 M 482.500 279.062 C 479.750 280.673, 476.825 282.301, 476 282.678 C 475.175 283.056, 473.375 284.106, 472 285.011 C 470.625 285.916, 466.800 288.384, 463.500 290.494 C 460.200 292.605, 455.787 295.495, 453.693 296.916 C 451.600 298.337, 448.423 300.400, 446.635 301.500 C 440.727 305.133, 426.054 314.438, 420.229 318.243 C 417.078 320.302, 413.825 322.305, 413 322.693 C 412.175 323.082, 407.995 325.785, 403.711 328.700 C 399.428 331.615, 395.697 334, 395.421 334 C 395.145 334, 393.700 334.850, 392.210 335.888 C 390.719 336.926, 386.800 339.463, 383.500 341.524 C 377.131 345.502, 371.252 349.242, 361.500 355.516 C 358.200 357.639, 353.925 360.358, 352 361.559 C 345.818 365.413, 337.762 370.550, 327 377.500 C 315.844 384.704, 309.408 388.808, 301.807 393.564 C 299.226 395.179, 292.251 399.606, 286.307 403.402 C 272.361 412.308, 270.015 413.802, 261 419.515 C 256.875 422.129, 251.025 425.895, 248 427.884 C 241.255 432.318, 240.146 433.005, 235.881 435.390 C 234.021 436.429, 232.275 437.575, 232 437.936 C 231.725 438.297, 226.775 441.478, 221 445.005 C 215.225 448.531, 208.367 452.898, 205.760 454.708 C 203.153 456.519, 200.829 458, 200.594 458 C 200.183 458, 190.805 464.061, 178.719 472.137 C 175.539 474.262, 172.722 476, 172.458 476 C 172.195 476, 169.739 477.575, 167 479.500 C 164.261 481.425, 161.811 483, 161.555 483 C 161.078 483, 154.303 487.324, 152.500 488.779 C 151.950 489.223, 148.874 491.141, 145.664 493.043 C 132.768 500.683, 129.964 502.606, 128.338 504.928 C 126.518 507.526, 126.661 507.783, 136.441 519.500 C 145.936 530.875, 146.379 531.068, 153.616 526.962 C 156.852 525.126, 160.625 522.854, 162 521.913 C 163.375 520.973, 167.875 518.079, 172 515.482 C 179.831 510.554, 181.686 509.364, 194 501.369 C 198.125 498.691, 201.960 496.275, 202.522 496 C 203.084 495.725, 206.009 493.891, 209.022 491.925 C 212.035 489.959, 217.650 486.382, 221.500 483.976 C 231.614 477.655, 248.056 467.094, 251.210 464.892 C 252.700 463.851, 254.125 463, 254.376 463 C 254.813 463, 263.939 457.111, 276.281 448.863 C 279.461 446.738, 282.269 445, 282.521 445 C 282.773 445, 285.571 443.201, 288.739 441.001 C 291.908 438.802, 294.885 437.002, 295.356 437.001 C 295.827 437.001, 297.852 435.733, 299.856 434.184 C 303.237 431.571, 309.401 427.630, 315.821 423.975 C 317.295 423.137, 321.875 420.212, 326 417.475 C 330.125 414.739, 333.950 412.275, 334.500 412 C 335.050 411.725, 338.875 409.309, 343 406.631 C 350.658 401.660, 351.935 400.833, 365 392.394 C 369.125 389.729, 373.705 386.863, 375.179 386.025 C 381.438 382.462, 387.789 378.388, 391.894 375.303 C 394.310 373.486, 396.656 372, 397.105 372 C 397.555 372, 401.558 369.525, 406 366.500 C 410.442 363.475, 414.289 361, 414.549 361 C 414.808 361, 417.261 359.425, 420 357.500 C 422.739 355.575, 425.214 354, 425.500 354 C 425.786 354, 428.176 352.538, 430.810 350.750 C 433.444 348.962, 436.368 347.050, 437.307 346.500 C 439.623 345.144, 464.517 329.385, 469.500 326.120 C 471.700 324.679, 474.095 322.938, 474.821 322.250 C 475.548 321.563, 476.547 321, 477.040 321 C 477.533 321, 480.539 319.255, 483.719 317.123 C 489.519 313.234, 505.716 302.752, 516 296.233 C 519.025 294.315, 524.102 291.003, 527.281 288.873 C 530.461 286.743, 533.298 285, 533.585 285 C 534.765 285, 541 279.414, 541 278.357 C 541 276.247, 537.945 276, 512.668 276.066 L 487.500 276.133 482.500 279.062 M 484 280.523 C 481.525 281.845, 478.150 283.626, 476.500 284.480 C 474.850 285.334, 471.411 287.488, 468.857 289.266 C 466.304 291.045, 461.626 294.075, 458.462 296 C 455.299 297.925, 452.213 299.979, 451.605 300.565 C 450.997 301.151, 448.250 302.932, 445.500 304.522 C 442.750 306.113, 438.475 308.811, 436 310.519 C 433.525 312.227, 430.825 313.929, 430 314.301 C 429.175 314.673, 424.450 317.688, 419.500 321 C 414.550 324.312, 409.825 327.315, 409 327.674 C 408.175 328.033, 405.025 329.970, 402 331.978 C 387.427 341.653, 385.302 343, 384.617 343 C 384.212 343, 381.817 344.575, 379.296 346.500 C 376.775 348.425, 374.172 350, 373.511 350 C 372.851 350, 371.495 350.900, 370.500 352 C 369.505 353.100, 368.305 354, 367.835 354 C 367.364 354, 364.739 355.575, 362 357.500 C 359.261 359.425, 356.786 361, 356.500 361 C 356.214 361, 353.739 362.575, 351 364.500 C 348.261 366.425, 345.786 368, 345.500 368 C 345.214 368, 342.739 369.575, 340 371.500 C 337.261 373.425, 334.636 375, 334.165 375 C 333.695 375, 332.495 375.900, 331.500 377 C 330.505 378.100, 329.305 379, 328.835 379 C 328.364 379, 325.739 380.575, 323 382.500 C 320.261 384.425, 317.647 386, 317.191 386 C 316.735 386, 313.949 387.800, 311 390 C 308.051 392.200, 305.240 394, 304.753 394 C 304.265 394, 302.332 395.171, 300.456 396.602 C 296.870 399.336, 287.345 405.323, 282.855 407.663 C 281.401 408.421, 279.658 409.707, 278.983 410.521 C 278.308 411.334, 277.356 412, 276.867 412 C 276.379 412, 273.739 413.575, 271 415.500 C 268.261 417.425, 265.808 419, 265.549 419 C 265.289 419, 261.442 421.475, 257 424.500 C 252.558 427.525, 248.711 430, 248.451 430 C 248.192 430, 245.739 431.575, 243 433.500 C 240.261 435.425, 237.631 437, 237.154 437 C 236.678 437, 234.225 438.575, 231.704 440.500 C 229.183 442.425, 226.788 444, 226.383 444 C 225.682 444, 223.790 445.195, 209.219 454.842 C 205.764 457.129, 202.744 459, 202.507 459 C 202.271 459, 198.535 461.412, 194.206 464.360 C 189.876 467.308, 184.194 471.020, 181.579 472.610 C 178.963 474.199, 175.747 476.175, 174.431 477 C 168.031 481.012, 155.916 488.698, 150.927 491.911 C 147.861 493.885, 142.736 497.075, 139.538 499 C 132.819 503.045, 129.999 505.484, 130.001 507.250 C 130.003 508.786, 144.108 525.921, 146.448 527.231 C 147.685 527.923, 149.125 527.520, 151.819 525.728 C 153.844 524.382, 157.300 522.235, 159.500 520.957 C 164.710 517.931, 175.988 510.782, 183.281 505.883 C 186.461 503.748, 189.429 502, 189.876 502 C 190.324 502, 191.505 501.100, 192.500 500 C 193.495 498.900, 194.695 498, 195.165 498 C 195.636 498, 198.261 496.425, 201 494.500 C 203.739 492.575, 206.275 491, 206.636 491 C 206.997 491, 209.815 489.364, 212.896 487.364 C 215.978 485.364, 220.750 482.281, 223.500 480.512 C 226.250 478.744, 231.650 475.261, 235.500 472.773 C 239.350 470.285, 245.875 466.115, 250 463.506 C 254.125 460.896, 259.075 457.744, 261 456.500 C 264.444 454.274, 277.209 446.098, 288 439.206 C 291.025 437.274, 295.975 434.148, 299 432.260 C 302.025 430.372, 308.262 426.391, 312.861 423.413 C 317.460 420.436, 321.383 418, 321.580 418 C 321.776 418, 324.539 416.252, 327.719 414.117 C 332.809 410.697, 340.404 405.834, 352 398.569 C 353.925 397.363, 358.200 394.642, 361.500 392.522 C 367.699 388.541, 369.340 387.498, 382 379.500 C 389.895 374.512, 391.916 373.214, 404 365.369 C 408.125 362.691, 411.950 360.275, 412.500 360 C 413.050 359.725, 416.875 357.309, 421 354.631 C 425.125 351.953, 430.075 348.775, 432 347.569 C 435.904 345.123, 443.468 340.295, 452.500 334.484 C 455.800 332.361, 460.075 329.637, 462 328.431 C 468.335 324.462, 480.436 316.803, 484 314.507 C 485.925 313.266, 492.225 309.207, 498 305.485 C 503.775 301.764, 510.966 297.095, 513.979 295.110 C 516.993 293.124, 520.143 291.177, 520.979 290.781 C 524.411 289.160, 536.387 280.410, 536.762 279.250 C 537.079 278.272, 531.870 278.013, 512.833 278.059 C 489.106 278.117, 488.388 278.178, 484 280.523 M 25.676 320.750 C 25.968 323.913, 26.835 329.040, 27.603 332.144 C 28.371 335.249, 29 339.341, 29 341.238 C 29 343.135, 29.900 347.303, 31 350.500 C 32.100 353.697, 33 357.480, 33.001 358.907 C 33.001 360.333, 33.901 363.867, 35.001 366.761 C 36.100 369.654, 37 373.171, 37 374.576 C 37 375.982, 37.533 378.114, 38.184 379.316 C 38.836 380.517, 39.680 383.300, 40.060 385.500 C 40.833 389.978, 43.333 397.427, 46.136 403.610 C 47.161 405.870, 48.014 408.570, 48.032 409.610 C 48.049 410.649, 48.724 412.374, 49.532 413.441 C 50.339 414.509, 51 416.090, 51 416.956 C 51 417.821, 51.900 420.209, 53 422.261 C 54.100 424.314, 55 426.427, 55 426.958 C 55 427.489, 56.575 431.242, 58.500 435.297 C 60.425 439.353, 62 442.916, 62 443.215 C 62 444.098, 66.943 454.172, 69.499 458.500 C 70.799 460.700, 72.523 463.908, 73.329 465.628 C 74.136 467.348, 75.292 469.062, 75.898 469.437 C 76.504 469.812, 77 470.771, 77 471.569 C 77 472.367, 78.575 475.261, 80.500 478 C 82.425 480.739, 84 483.430, 84 483.981 C 84 484.532, 85.542 487.003, 87.426 489.471 C 89.311 491.940, 91.141 494.869, 91.494 495.980 C 91.846 497.091, 92.512 498, 92.972 498 C 93.433 498, 95 500.030, 96.454 502.512 C 108.680 523.373, 153.384 572.363, 180.429 594.539 C 186.440 599.467, 192.066 604.175, 192.931 605 C 199.888 611.635, 244.677 642.450, 257 649.079 C 259.475 650.411, 263.633 652.962, 266.240 654.750 C 268.847 656.538, 271.332 658, 271.763 658 C 272.193 658, 274.886 659.541, 277.747 661.425 C 283.473 665.197, 296.970 672, 298.726 672 C 299.707 672, 303.445 670.326, 308 667.846 C 308.825 667.397, 310.850 666.357, 312.500 665.535 C 314.150 664.713, 316.288 663.581, 317.250 663.020 C 321.483 660.553, 322.645 659.915, 325 658.766 C 326.375 658.095, 329.633 656.073, 332.240 654.273 C 334.847 652.473, 337.589 651, 338.335 651 C 339.080 651, 340.505 650.100, 341.500 649 C 342.495 647.900, 343.740 647, 344.266 647 C 344.792 647, 349.941 643.850, 355.708 640 C 361.475 636.150, 366.412 633, 366.679 633 C 366.945 633, 369.085 631.425, 371.435 629.500 C 373.784 627.575, 375.975 626, 376.303 626 C 377.284 626, 385.411 620.309, 388.048 617.775 C 389.397 616.480, 391.850 614.568, 393.500 613.527 C 399.141 609.967, 424.770 589.043, 425.354 587.520 C 425.675 586.684, 426.562 586, 427.326 586 C 428.090 586, 431.210 583.300, 434.259 580 C 437.309 576.700, 440.263 574, 440.823 574 C 441.864 574, 461.501 553.149, 470.500 542.488 C 473.250 539.230, 476.431 535.650, 477.569 534.532 C 480.845 531.315, 495.556 511.827, 497.341 508.340 C 498.230 506.603, 499.324 505.028, 499.771 504.840 C 500.983 504.333, 510.168 490.411, 511.898 486.459 C 512.390 485.336, 513.514 483.819, 514.396 483.086 C 515.278 482.354, 516 481.190, 516 480.500 C 516 479.810, 516.597 478.749, 517.327 478.143 C 518.058 477.537, 520.778 472.870, 523.373 467.771 C 525.968 462.672, 528.472 457.825, 528.938 457 C 529.405 456.175, 530.281 454.375, 530.886 453 C 531.491 451.625, 532.439 449.712, 532.993 448.750 C 533.547 447.788, 534.453 446.212, 535.007 445.250 C 536.514 442.632, 537.606 440.124, 540.125 433.500 C 541.379 430.200, 542.989 426.790, 543.703 425.921 C 544.416 425.053, 545 423.602, 545 422.698 C 545 421.794, 545.857 419.129, 546.904 416.777 C 551.308 406.887, 556.987 389.940, 559.396 379.500 C 560.030 376.750, 561.101 373.517, 561.775 372.316 C 562.449 371.114, 562.954 368.414, 562.898 366.316 L 562.795 362.500 561.952 365.500 C 561.488 367.150, 560.582 370.525, 559.939 373 C 559.296 375.475, 558.175 378.917, 557.449 380.649 C 556.723 382.381, 555.816 385.531, 555.434 387.649 C 555.052 389.767, 554.371 391.968, 553.922 392.539 C 553.472 393.111, 552.653 395.361, 552.102 397.539 C 550.619 403.395, 546.976 413.360, 545.920 414.450 C 545.414 414.972, 545 416.048, 545 416.840 C 545 417.633, 544.100 420.243, 543 422.640 C 541.900 425.038, 540.100 428.962, 539 431.360 C 537.900 433.757, 537 436.045, 537 436.444 C 537 437.354, 525.669 460.112, 522.534 465.500 C 521.253 467.700, 519.270 471.300, 518.127 473.500 C 516.984 475.700, 514.567 479.750, 512.756 482.500 C 510.946 485.250, 508.161 489.750, 506.569 492.500 C 504.976 495.250, 503.408 497.725, 503.084 498 C 502.760 498.275, 501.146 500.525, 499.498 503 C 496.296 507.809, 487.162 519.776, 475.321 534.676 C 467.846 544.083, 435.240 577.443, 424.500 586.674 C 410.781 598.464, 393.001 612.377, 379.610 621.799 C 363.257 633.307, 359.883 635.565, 349.142 642.193 C 346.196 644.012, 342.737 646.175, 341.456 647 C 337.575 649.500, 314.886 662.608, 308.727 665.907 C 301.131 669.977, 296.922 669.931, 288.823 665.688 C 281.713 661.964, 266.730 653.201, 253.448 645 C 250.330 643.075, 246.267 640.600, 244.419 639.500 C 234.973 633.880, 201.627 610.064, 189.500 600.278 C 171.717 585.927, 127.151 541.289, 116.974 527.633 C 115.279 525.360, 110.828 519.450, 107.082 514.500 C 99.661 504.694, 85 483.193, 85 482.115 C 85 481.747, 84.212 480.355, 83.250 479.023 C 79.373 473.657, 65.865 447.786, 60.264 435 C 56.722 426.913, 56.026 425.262, 54.152 420.500 C 52.382 416.002, 50.253 410.324, 46.462 400 C 45.755 398.075, 44.189 393.125, 42.981 389 C 41.773 384.875, 39.933 378.911, 38.892 375.746 C 37.851 372.581, 37 368.846, 37 367.446 C 37 366.046, 36.386 363.686, 35.636 362.200 C 34.886 360.715, 33.957 357.025, 33.571 354 C 33.186 350.975, 32.273 346.475, 31.542 344 C 30.310 339.828, 28.522 329.379, 27.308 319.250 C 26.536 312.812, 25.067 314.162, 25.676 320.750 M 528 319.744 C 524.975 321.734, 520.250 324.788, 517.500 326.531 C 514.750 328.275, 508.675 332.179, 504 335.209 C 499.325 338.238, 493.025 342.292, 490 344.217 C 486.975 346.143, 480.450 350.317, 475.500 353.493 C 470.550 356.668, 464.025 360.839, 461 362.760 C 457.975 364.682, 452.898 367.997, 449.719 370.127 C 446.539 372.257, 443.638 374, 443.272 374 C 442.907 374, 441.008 375.071, 439.054 376.381 C 437.099 377.690, 432.125 380.901, 428 383.515 C 423.875 386.129, 418.025 389.840, 415 391.763 C 411.975 393.686, 407.925 396.259, 406 397.480 C 404.075 398.702, 398.450 402.297, 393.500 405.470 C 388.550 408.642, 382.250 412.672, 379.500 414.425 C 376.750 416.177, 372.025 419.203, 369 421.148 C 365.975 423.093, 360.800 426.387, 357.500 428.469 C 354.200 430.551, 348.898 433.997, 345.719 436.127 C 342.539 438.257, 339.727 440, 339.471 440 C 339.214 440, 336.812 441.575, 334.133 443.500 C 331.453 445.425, 328.992 447, 328.662 447 C 328.332 447, 325.461 448.748, 322.281 450.883 C 316.390 454.841, 306.875 460.906, 297 467 C 291 470.702, 279.541 477.923, 274 481.493 C 272.075 482.734, 265.775 486.789, 260 490.505 C 254.225 494.222, 246.575 499.172, 243 501.507 C 239.425 503.841, 233.125 507.877, 229 510.477 C 224.875 513.076, 220.375 515.973, 219 516.913 C 217.625 517.854, 213.864 520.171, 210.642 522.062 C 207.421 523.953, 203.751 526.175, 202.489 527 C 201.226 527.825, 197.166 530.300, 193.467 532.500 C 189.767 534.700, 185.713 537.175, 184.458 538 C 183.203 538.825, 179.581 541.012, 176.410 542.859 C 170.718 546.175, 167.067 549.551, 167.066 551.500 C 167.065 553.487, 186.066 570.394, 206 586.143 C 226.228 602.126, 259.791 623.773, 286.273 637.917 C 295.720 642.963, 297.931 642.393, 320.316 629.131 C 324.615 626.584, 329.340 623.864, 330.816 623.087 C 332.292 622.309, 336.796 619.497, 340.823 616.837 C 344.851 614.177, 348.343 612, 348.584 612 C 348.824 612, 351.266 610.425, 354.010 608.500 C 356.755 606.575, 361.363 603.354, 364.250 601.341 C 370.362 597.082, 371.245 596.428, 384.500 586.345 C 393.179 579.742, 402.988 571.694, 415.992 560.505 C 421.993 555.341, 437.367 539.788, 443.056 533.124 C 446.050 529.617, 448.977 526.242, 449.560 525.624 C 452.382 522.630, 461.734 511.310, 462.562 509.887 C 463.078 508.999, 464.769 506.749, 466.319 504.887 C 471.570 498.579, 483.938 479.959, 491.353 467.199 C 499.524 453.140, 513.982 424.316, 514.032 421.988 C 514.049 421.170, 514.724 419.626, 515.532 418.559 C 516.339 417.491, 517.003 415.916, 517.006 415.059 C 517.010 414.201, 517.701 412.179, 518.543 410.565 C 519.384 408.952, 520.468 406.027, 520.951 404.065 C 521.434 402.104, 523.218 396.679, 524.915 392.008 C 526.612 387.338, 528 382.478, 528 381.209 C 528 379.939, 528.636 377.670, 529.414 376.166 C 530.192 374.662, 531.135 371.646, 531.509 369.465 C 531.884 367.284, 532.788 363.250, 533.520 360.500 C 537.771 344.519, 541.782 320.480, 540.677 317.601 C 539.618 314.841, 534.013 315.788, 528 319.744 M 98.250 326.526 C 93.844 329.635, 96.858 336.452, 103.167 337.649 C 111.238 339.180, 109.960 343, 101.378 343 C 96.168 343, 94.344 344.150, 97.582 345.393 C 99.601 346.168, 109.809 346.158, 112.717 345.378 C 113.936 345.052, 115.214 343.900, 115.557 342.820 C 116.728 339.132, 115.154 336.548, 109.980 333.662 C 103.819 330.225, 103.974 328.438, 110.413 328.667 C 114.313 328.805, 115.060 328.549, 114.797 327.167 C 114.337 324.757, 101.463 324.259, 98.250 326.526 M 123.667 325.667 C 122.461 326.872, 122.925 343.525, 124.200 344.800 C 125.629 346.229, 139.789 346.419, 141.972 345.038 C 143.268 344.219, 143.268 344.045, 141.972 343.583 C 141.162 343.295, 138.254 342.933, 135.509 342.780 C 131.545 342.558, 130.444 342.113, 130.161 340.620 C 129.696 338.178, 131.610 337.034, 136.191 337.015 C 140.199 336.999, 141.346 336.065, 140.396 333.590 C 139.980 332.506, 138.523 332, 135.820 332 C 132.582 332, 131.914 331.678, 132.185 330.250 C 132.427 328.973, 133.665 328.417, 136.759 328.193 C 139.645 327.983, 141 327.424, 141 326.443 C 141 325.301, 139.260 325, 132.667 325 C 128.083 325, 124.033 325.300, 123.667 325.667 M 149.667 325.667 C 149.300 326.033, 149 330.547, 149 335.698 C 149 343.135, 149.311 345.182, 150.513 345.643 C 152.485 346.400, 155 344.272, 155 341.846 C 155 339.409, 157.720 338.344, 160.119 339.842 C 162.974 341.626, 165.604 341.225, 167.283 338.750 C 169.170 335.969, 170.893 337.241, 171.898 342.157 C 172.393 344.577, 173.123 345.500, 174.541 345.500 C 176.341 345.500, 176.523 344.664, 176.786 335.188 L 177.071 324.875 173.293 325.188 C 170.357 325.430, 169.234 326.088, 168.258 328.134 C 167.567 329.583, 165.786 331.566, 164.300 332.539 C 161.712 334.235, 161.554 334.234, 160.549 332.521 C 156.904 326.304, 152.072 323.261, 149.667 325.667 M 185.667 325.667 C 185.300 326.033, 185 330.253, 185 335.044 C 185 341.567, 185.377 344.068, 186.500 345 C 187.697 345.993, 188.303 345.993, 189.500 345 C 190.325 344.315, 191 343.167, 191 342.449 C 191 339.946, 194.121 338, 198.137 338 C 203.954 338, 206 336.579, 206 332.537 C 206 327.156, 202.434 325, 193.532 325 C 189.573 325, 186.033 325.300, 185.667 325.667 M 212.215 335.213 L 212.500 345.500 221.750 345.500 C 231.780 345.500, 234.782 343.706, 225.595 343.203 C 215.796 342.666, 215.831 337, 225.632 337 C 227.970 337, 230.172 336.530, 230.527 335.956 C 231.550 334.301, 229.003 332.001, 226.128 331.985 C 223.210 331.968, 220.213 330.453, 221.181 329.485 C 221.524 329.143, 223.947 328.556, 226.566 328.181 C 234.381 327.063, 231.734 325.522, 221.470 325.213 L 211.929 324.927 212.215 335.213 M 238.667 325.667 C 238.300 326.033, 238 330.485, 238 335.560 C 238 343.158, 238.287 344.896, 239.627 345.410 C 241.693 346.203, 243.790 344.488, 244.190 341.677 C 244.636 338.548, 248.324 338.325, 250.654 341.287 C 252.982 344.247, 256.715 346.323, 258.486 345.644 C 259.534 345.241, 259.392 344.279, 257.813 341.087 L 255.811 337.041 257.905 333.654 L 259.998 330.267 257.926 327.634 C 255.987 325.169, 255.326 325, 247.594 325 C 243.051 325, 239.033 325.300, 238.667 325.667 M 245.336 329.566 C 244.470 331.825, 246.244 334.500, 248.609 334.500 C 251.606 334.500, 251.267 328.609, 248.246 328.180 C 246.831 327.979, 245.747 328.495, 245.336 329.566 M 192.667 329.667 C 192.300 330.033, 192 331.383, 192 332.667 C 192 334.497, 192.546 335, 194.531 335 C 195.924 335, 197.324 334.319, 197.643 333.487 C 198.680 330.786, 194.645 327.689, 192.667 329.667 M 270.071 505.250 C 269.587 506.488, 267.798 510.579, 266.096 514.343 C 261.296 524.954, 262.258 528.172, 268.862 523.595 C 273.569 520.334, 276.903 520.316, 281.632 523.525 C 283.678 524.913, 285.835 525.879, 286.426 525.670 C 288.285 525.013, 287.020 520.001, 282.815 511.355 C 278.753 503.004, 278.749 503, 274.851 503 C 271.733 503, 270.774 503.452, 270.071 505.250 M 295.667 503.667 C 294.710 504.623, 294.872 523.249, 295.850 524.791 C 297.113 526.782, 314.500 526.045, 314.500 524 C 314.500 522.576, 313.770 522.406, 306.321 522.092 C 302.165 521.917, 301 519.472, 301 510.929 C 301 503.289, 300.915 503, 298.667 503 C 297.383 503, 296.033 503.300, 295.667 503.667 M 314 504.468 C 314 505.396, 314.899 506, 316.277 506 C 317.530 506, 319.555 506.701, 320.777 507.557 C 322.628 508.853, 323.002 510.066, 323.014 514.807 C 323.033 522.883, 323.803 525.170, 326.380 524.802 C 328.275 524.532, 328.553 523.693, 329 516.898 C 329.539 508.705, 330.758 506.293, 334.604 505.809 C 335.956 505.639, 337.050 505.050, 337.035 504.500 C 337.019 503.910, 332.294 503.385, 325.504 503.218 C 315.716 502.979, 314 503.165, 314 504.468 M 343 503.878 C 343 504.360, 343.675 505.315, 344.500 506 C 346.560 507.709, 346.607 520.252, 344.559 521.951 C 341.802 524.239, 343.909 526, 349.407 526 C 355.994 526, 357.617 524.600, 354.953 521.213 C 352.275 517.808, 352.300 510.160, 355 506.727 C 356.100 505.329, 357 503.918, 357 503.592 C 357 503.267, 353.850 503, 350 503 C 346.150 503, 343 503.395, 343 503.878 M 367.409 505.014 C 360.628 509.360, 361.188 520.585, 368.372 524.313 C 373.086 526.760, 379.763 526.672, 384.810 524.097 C 393.185 519.825, 394.454 513.218, 388.118 506.882 C 384.356 503.121, 384.021 503.001, 377.368 503.017 C 372.251 503.029, 369.712 503.539, 367.409 505.014 M 398.667 503.667 C 397.691 504.643, 397.881 522.265, 398.885 523.848 C 400.350 526.161, 403.318 524.713, 404.215 521.248 C 405.392 516.709, 408.397 516.991, 413.638 522.135 C 416.365 524.812, 418.407 526.058, 419.426 525.667 C 421.416 524.903, 421.452 522.620, 419.500 521 C 417.599 519.422, 417.587 516.929, 419.468 514.441 C 420.276 513.374, 420.951 511.063, 420.968 509.307 C 421.017 504.367, 418.195 503, 407.944 503 C 403.208 503, 399.033 503.300, 398.667 503.667 M 372.455 508.455 C 369.134 511.775, 369.010 518.193, 372.223 520.443 C 374.777 522.233, 378.290 522.450, 381.023 520.988 C 383.482 519.672, 384.563 513.923, 382.928 510.855 C 380.112 505.570, 376.229 504.680, 372.455 508.455 M 405.410 507.375 C 404.211 510.498, 405.424 512.500, 408.514 512.500 C 411.165 512.500, 411.500 512.164, 411.500 509.500 C 411.500 506.969, 411.069 506.450, 408.744 506.183 C 406.986 505.981, 405.779 506.412, 405.410 507.375 M 273.190 513.271 C 271.755 515, 273.353 517.462, 275.399 516.677 C 277.361 515.924, 277.447 514.615, 275.633 513.110 C 274.603 512.255, 274 512.295, 273.190 513.271" stroke="none" fill="#ede663" fill-rule="evenodd"/></svg>